# xmcd
#
# Track frame offsets:
#	150
#	27675
#	40185
#	62759
#	89410
#	110791
#	136072
#	166565
#	184751
#	201841
#	217900
#	228370
#	237255
#	256796
#	266736
#	291842
#	317269
#	338128
#
# Disc length: 4792 seconds
#
# Revision: 0
# Processed by: cddbd v1.5PL3 Copyright (c) Steve Scherf et al.
# Submitted via: audiograbber 1.83.01
#
DISCID=fd12b612
DTITLE=Santana - Brothers and Buddy Miles
DYEAR=1900
DGENRE=
TTITLE0=Transmutation
TTITLE1=Thoughts
TTITLE2=Luz Amor Y Vida
TTITLE3=En Aranjuez Con Tu Amor
TTITLE4=Contigo
TTITLE5=Blues Latino
TTITLE6=La Danza
TTITLE7=Brujo
TTITLE8=The Trip
TTITLE9=Reflections
TTITLE10=Mornin In Marin
TTITLE11=Beat of My Drum
TTITLE12=Veracruz
TTITLE13=Primera Invasion
TTITLE14=Open Invitation
TTITLE15=She's Not There
TTITLE16=She Can't Let Go
TTITLE17=Song of Freedom
EXTD=
EXTT0=
EXTT1=
EXTT2=
EXTT3=
EXTT4=
EXTT5=
EXTT6=
EXTT7=
EXTT8=
EXTT9=
EXTT10=
EXTT11=
EXTT12=
EXTT13=
EXTT14=
EXTT15=
EXTT16=
EXTT17=
PLAYORDER=
